<svg xmlns="http://www.w3.org/2000/svg" width="256" height="256" viewBox="0 0 256 256">
  <!-- Beach terrain fill: packed golden sand. Seamless 256 tile (all periods divide 256). -->
  <defs>
    <pattern id="grainA" width="64" height="64" patternUnits="userSpaceOnUse">
      <circle cx="9" cy="12" r="1.3" fill="#C99A55"/>
      <circle cx="41" cy="7" r="1" fill="#FFF3D1"/>
      <circle cx="27" cy="33" r="1.5" fill="#C99A55"/>
      <circle cx="55" cy="29" r="1.1" fill="#B8864A"/>
      <circle cx="14" cy="50" r="1" fill="#FFF3D1"/>
      <circle cx="47" cy="54" r="1.4" fill="#C99A55"/>
      <circle cx="33" cy="60" r="0.8" fill="#FFF3D1"/>
    </pattern>
    <pattern id="grainB" width="128" height="128" patternUnits="userSpaceOnUse">
      <circle cx="70" cy="20" r="2" fill="#D4A968" fill-opacity="0.8"/>
      <circle cx="104" cy="88" r="2.4" fill="#D4A968" fill-opacity="0.8"/>
      <circle cx="22" cy="100" r="1.8" fill="#FFF6DC" fill-opacity="0.8"/>
      <circle cx="90" cy="46" r="1.2" fill="#A97A3E" fill-opacity="0.7"/>
      <ellipse cx="40" cy="70" rx="3" ry="2" fill="#E9D3AA"/>
    </pattern>
  </defs>
  <rect width="256" height="256" fill="#E7C487"/>
  <!-- soft strata, wavelength 128 -->
  <path d="M0 70 Q32 58 64 70 T128 70 T192 70 T256 70 V96 Q224 108 192 96 T128 96 T64 96 T0 96 Z" fill="#DDB575" fill-opacity="0.55"/>
  <path d="M0 176 Q32 188 64 176 T128 176 T192 176 T256 176 V200 Q224 190 192 200 T128 200 T64 200 T0 200 Z" fill="#EFD19B" fill-opacity="0.6"/>
  <rect width="256" height="256" fill="url(#grainA)"/>
  <rect width="256" height="256" fill="url(#grainB)"/>
</svg>
